REM MD5 4a651d826983748f4b080913dbe97897
FILE "Final Fantasy Extra Collection (Japan).bin" BINARY
  TRACK 01 MODE2/2352
    INDEX 01 00:00:00
  TRACK 02 AUDIO
    INDEX 00 59:47:61
    INDEX 01 59:49:61
  TRACK 03 AUDIO
    INDEX 00 62:00:39
    INDEX 01 62:02:39
  TRACK 04 AUDIO
    INDEX 00 63:34:69
    INDEX 01 63:36:69
REM LEADOUT 67:45:72
